<svg id="Layer_1" data-name="Layer 1" xmlns="http://www.w3.org/2000/svg" viewBox="0 0 492 408.65"><title>left-arrow</title><path d="M27.66,284.63l-.76-.17,329.22-.07L252.65,388.14a27.17,27.17,0,0,0,0,38.21l16.11,16.11a26.94,26.94,0,0,0,38,0L484.16,265a27.12,27.12,0,0,0,0-38.16L306.7,49.51a27,27,0,0,0-38,0l-16.1,16.12a26.65,26.65,0,0,0-7.85,19,25.9,25.9,0,0,0,7.86,18.65L357.27,207.57l-330,.07C12.45,207.64,0,220.43,0,235.25V258C0,272.85,12.84,284.63,27.66,284.63Z" transform="translate(0 -41.67)"/></svg>