<?xml version="1.0" encoding="utf-8"?>
<!-- Svg Vector Icons : http://www.onlinewebfonts.com/icon -->
<!DOCTYPE svg PUBLIC "-//W3C//DTD SVG 1.1//EN" "http://www.w3.org/Graphics/SVG/1.1/DTD/svg11.dtd">
<svg version="1.1" xmlns="http://www.w3.org/2000/svg" xmlns:xlink="http://www.w3.org/1999/xlink" x="0px" y="0px" viewBox="0 0 1000 1000" enable-background="new 0 0 1000 1000" xml:space="preserve">
<metadata> Svg Vector Icons : http://www.onlinewebfonts.com/icon </metadata>
<g><path d="M24.9,975.1L24.9,975.1c19.8,19.8,52.1,19.8,71.9,0L975.1,96.7c19.8-19.8,19.8-52.1,0-71.9l0,0C955.3,5,923.1,5,903.3,24.9L24.9,903.3C5,923,5,955.3,24.9,975.1z"/><path d="M24.9,24.9L24.9,24.9C5,44.7,5,76.9,24.9,96.7l878.4,878.4c19.8,19.8,52.1,19.8,71.9,0l0,0c19.8-19.8,19.8-52.1,0-71.9L96.7,24.9C76.9,5,44.6,5,24.9,24.9z"/></g>
</svg>