<?xml version="1.0" encoding="utf-8"?>
<!-- Generator: Adobe Illustrator 23.0.1, SVG Export Plug-In . SVG Version: 6.00 Build 0)  -->
<svg version="1.1" id="Layer_1" xmlns="http://www.w3.org/2000/svg" xmlns:xlink="http://www.w3.org/1999/xlink" x="0px" y="0px"
	 viewBox="0 0 249.6 249.6" style="enable-background:new 0 0 249.6 249.6;" xml:space="preserve">
<style type="text/css">
	.st0{fill-rule:evenodd;clip-rule:evenodd;fill:#1a1a1a; width: 32px; height: 32px;}
</style>
<path class="st0" d="M124.1,16C64.8,16,16.6,64.1,16.6,123.5c0,47.5,30.8,87.8,73.5,102c5.4,1,7.3-2.3,7.3-5.2
	c0-2.6-0.1-9.3-0.1-18.3c-29.9,6.5-36.2-14.4-36.2-14.4c-4.9-12.4-11.9-15.7-11.9-15.7c-9.8-6.7,0.7-6.5,0.7-6.5
	c10.8,0.8,16.5,11.1,16.5,11.1c9.6,16.4,25.2,11.7,31.3,8.9c1-6.9,3.8-11.7,6.8-14.4c-23.9-2.7-49-11.9-49-53.1
	c0-11.7,4.2-21.3,11.1-28.8c-1.1-2.7-4.8-13.6,1.1-28.4c0,0,9-2.9,29.6,11c8.6-2.4,17.8-3.6,26.9-3.6c9.1,0,18.3,1.2,26.9,3.6
	c20.5-13.9,29.5-11,29.5-11c5.9,14.8,2.2,25.7,1.1,28.4c6.9,7.5,11,17.1,11,28.8c0,41.3-25.1,50.4-49.1,53c3.9,3.3,7.3,9.9,7.3,19.9
	c0,14.4-0.1,26-0.1,29.5c0,2.9,1.9,6.2,7.4,5.2c42.7-14.2,73.5-54.5,73.5-102C231.6,64.1,183.5,16,124.1,16z"/>
</svg>
